<svg  viewBox="0 0 118 21" fill="none" xmlns="http://www.w3.org/2000/svg">
<path d="M4.144 5.628C4.48 5.628 4.69467 5.77733 4.788 6.076L8.4 17.584C8.456 17.7147 8.54933 17.78 8.68 17.78H8.792C8.96 17.78 9.05333 17.7147 9.072 17.584L12.852 6.972C13.0387 6.468 13.2533 6.12267 13.496 5.936C13.7573 5.73067 14.14 5.628 14.644 5.628H17.976C18.48 5.628 18.8533 5.73067 19.096 5.936C19.3573 6.12267 19.5813 6.468 19.768 6.972L23.52 17.584C23.5387 17.7147 23.632 17.78 23.8 17.78H23.912C24.0427 17.78 24.136 17.7147 24.192 17.584L27.832 6.076C27.888 5.77733 28.1027 5.628 28.476 5.628H31.64C31.8827 5.628 32.032 5.69333 32.088 5.824C32.1627 5.936 32.172 6.09467 32.116 6.3L27.86 19.264C27.636 19.9733 27.3653 20.44 27.048 20.664C26.7493 20.888 26.3013 21 25.704 21H22.176C21.6907 21 21.3173 20.8787 21.056 20.636C20.7947 20.3747 20.5427 19.9173 20.3 19.264L16.604 9.044C16.5667 8.932 16.4827 8.876 16.352 8.876H16.184C16.0347 8.876 15.9507 8.932 15.932 9.044L12.264 19.264C12.0213 19.9173 11.7693 20.3747 11.508 20.636C11.2467 20.8787 10.8733 21 10.388 21H6.86C6.26267 21 5.80533 20.888 5.488 20.664C5.18933 20.44 4.928 19.9733 4.704 19.264L0.504 6.3C0.448 6.09467 0.448 5.936 0.504 5.824C0.56 5.69333 0.718667 5.628 0.98 5.628H4.144ZM48.1723 5.628C49.1243 5.628 49.9083 5.712 50.5243 5.88C51.1589 6.02933 51.6536 6.29067 52.0083 6.664C52.3816 7.01867 52.6429 7.49467 52.7923 8.092C52.9416 8.67067 53.0163 9.38 53.0163 10.22V12.88C53.0163 13.4773 52.8856 13.8973 52.6243 14.14C52.3629 14.364 51.9616 14.476 51.4203 14.476H37.2803V15.148C37.2803 16.0253 37.4856 16.66 37.8963 17.052C38.3256 17.444 39.1469 17.64 40.3603 17.64H52.0363C52.3723 17.64 52.5403 17.808 52.5403 18.144V20.496C52.5403 20.832 52.3723 21 52.0363 21H39.9683C38.6989 21 37.6349 20.8973 36.7763 20.692C35.9363 20.4867 35.2549 20.16 34.7323 19.712C34.2283 19.2453 33.8643 18.6573 33.6403 17.948C33.4163 17.22 33.3043 16.352 33.3043 15.344V11.312C33.3043 10.304 33.4163 9.44533 33.6403 8.736C33.8643 8.008 34.2283 7.42 34.7323 6.972C35.2549 6.50533 35.9363 6.16933 36.7763 5.964C37.6349 5.74 38.6989 5.628 39.9683 5.628H48.1723ZM37.2803 11.984H48.6202C48.9376 11.984 49.0963 11.8253 49.0963 11.508V10.332C49.0963 9.75333 48.9749 9.34267 48.7323 9.1C48.4896 8.85733 48.0416 8.736 47.3883 8.736H40.3603C39.1469 8.736 38.3256 8.932 37.8963 9.324C37.4856 9.69733 37.2803 10.332 37.2803 11.228V11.984ZM59.318 -1.66893e-06C59.7287 -1.66893e-06 59.934 0.205332 59.934 0.615999V5.628H70.434C71.6847 5.628 72.7393 5.74 73.598 5.964C74.4567 6.16933 75.138 6.50533 75.642 6.972C76.1647 7.42 76.538 8.008 76.762 8.736C76.986 9.44533 77.098 10.304 77.098 11.312V15.344C77.098 16.352 76.986 17.22 76.762 17.948C76.538 18.6573 76.1647 19.2453 75.642 19.712C75.138 20.16 74.4567 20.4867 73.598 20.692C72.7393 20.8973 71.6847 21 70.434 21H62.594C61.3247 21 60.2607 20.8973 59.402 20.692C58.562 20.4867 57.8807 20.16 57.358 19.712C56.854 19.2453 56.49 18.6573 56.266 17.948C56.042 17.22 55.93 16.352 55.93 15.344V0.615999C55.93 0.205332 56.1447 -1.66893e-06 56.574 -1.66893e-06H59.318ZM59.934 8.988V14.56C59.934 15.1573 59.9807 15.652 60.074 16.044C60.1673 16.436 60.326 16.7533 60.55 16.996C60.7927 17.22 61.11 17.388 61.502 17.5C61.894 17.5933 62.3887 17.64 62.986 17.64H70.042C70.658 17.64 71.162 17.5933 71.554 17.5C71.946 17.388 72.254 17.22 72.478 16.996C72.7207 16.7533 72.8887 16.436 72.982 16.044C73.0753 15.652 73.122 15.1573 73.122 14.56V12.068C73.122 11.4893 73.0753 11.004 72.982 10.612C72.8887 10.2013 72.7207 9.884 72.478 9.66C72.254 9.41733 71.946 9.24933 71.554 9.156C71.162 9.044 70.658 8.988 70.042 8.988H59.934ZM92.8366 5.628C94.0873 5.628 95.142 5.74 96.0006 5.964C96.8593 6.16933 97.5406 6.50533 98.0446 6.972C98.5673 7.42 98.9406 8.008 99.1646 8.736C99.3886 9.44533 99.5006 10.304 99.5006 11.312V18.76C99.5006 19.208 99.4633 19.5813 99.3886 19.88C99.3326 20.16 99.2206 20.384 99.0526 20.552C98.9033 20.72 98.698 20.8413 98.4366 20.916C98.1753 20.972 97.8393 21 97.4286 21H84.1006C83.2793 21 82.5886 20.9253 82.0286 20.776C81.4873 20.608 81.0486 20.3653 80.7126 20.048C80.3766 19.7307 80.134 19.32 79.9846 18.816C79.854 18.312 79.7886 17.7147 79.7886 17.024V15.68C79.7886 15.1013 79.854 14.588 79.9846 14.14C80.134 13.6733 80.3766 13.2813 80.7126 12.964C81.0486 12.6467 81.4873 12.4133 82.0286 12.264C82.5886 12.096 83.2793 12.012 84.1006 12.012H95.4966V11.48C95.4966 11.032 95.45 10.6493 95.3566 10.332C95.2633 10.0147 95.1046 9.76267 94.8806 9.576C94.6566 9.37067 94.3486 9.22133 93.9566 9.128C93.5646 9.03467 93.0606 8.988 92.4446 8.988H80.7406C80.4046 8.988 80.2366 8.82 80.2366 8.484V6.132C80.2366 5.796 80.4046 5.628 80.7406 5.628H92.8366ZM94.6846 17.92C94.9833 17.92 95.1886 17.8547 95.3006 17.724C95.4313 17.5747 95.4966 17.3227 95.4966 16.968V14.504H85.2486C84.67 14.504 84.2593 14.6253 84.0166 14.868C83.7926 15.092 83.6806 15.428 83.6806 15.876V16.464C83.6806 16.968 83.7926 17.3413 84.0166 17.584C84.2593 17.808 84.67 17.92 85.2486 17.92H94.6846ZM116.918 5.628C117.254 5.628 117.422 5.796 117.422 6.132V8.484C117.422 8.82 117.254 8.988 116.918 8.988H109.47C108.873 8.988 108.378 9.044 107.986 9.156C107.594 9.24933 107.277 9.41733 107.034 9.66C106.81 9.884 106.652 10.2013 106.558 10.612C106.465 11.004 106.418 11.4893 106.418 12.068V20.384C106.418 20.7947 106.213 21 105.802 21H103.058C102.629 21 102.414 20.7947 102.414 20.384V11.312C102.414 10.304 102.526 9.44533 102.75 8.736C102.974 8.008 103.338 7.42 103.842 6.972C104.365 6.50533 105.046 6.16933 105.886 5.964C106.745 5.74 107.809 5.628 109.078 5.628H116.918Z" fill="#212229"/>
</svg>
